<?xml version="1.0" encoding="UTF-8" standalone="no"?>
<svg
   xmlns:dc="http://purl.org/dc/elements/1.1/"
   xmlns:cc="http://creativecommons.org/ns#"
   xmlns:rdf="http://www.w3.org/1999/02/22-rdf-syntax-ns#"
   xmlns:svg="http://www.w3.org/2000/svg"
   xmlns="http://www.w3.org/2000/svg"
   xmlns:sodipodi="http://sodipodi.sourceforge.net/DTD/sodipodi-0.dtd"
   xmlns:inkscape="http://www.inkscape.org/namespaces/inkscape"
   viewBox="0 0 512 512"
   version="1.1"
   id="svg4"
   sodipodi:docname="ios-pin-white.svg"
   inkscape:version="0.92.3 (2405546, 2018-03-11)">
  <metadata
     id="metadata10">
    <rdf:RDF>
      <cc:Work
         rdf:about="">
        <dc:format>image/svg+xml</dc:format>
        <dc:type
           rdf:resource="http://purl.org/dc/dcmitype/StillImage" />
        <dc:title></dc:title>
      </cc:Work>
    </rdf:RDF>
  </metadata>
  <defs
     id="defs8" />
  <sodipodi:namedview
     pagecolor="#ffffff"
     bordercolor="#666666"
     borderopacity="1"
     objecttolerance="10"
     gridtolerance="10"
     guidetolerance="10"
     inkscape:pageopacity="0"
     inkscape:pageshadow="2"
     inkscape:window-width="1360"
     inkscape:window-height="743"
     id="namedview6"
     showgrid="false"
     inkscape:zoom="0.4609375"
     inkscape:cx="218.0339"
     inkscape:cy="256"
     inkscape:window-x="0"
     inkscape:window-y="0"
     inkscape:window-maximized="1"
     inkscape:current-layer="svg4" />
  <path
     d="M256 48c-79.5 0-144 59.9-144 133.7 0 104 144 282.3 144 282.3s144-178.3 144-282.3C400 107.9 335.5 48 256 48zm0 190.9c-25.9 0-46.9-21-46.9-46.9s21-46.9 46.9-46.9 46.9 21 46.9 46.9-21 46.9-46.9 46.9z"
     id="path2" />
  <path
     style="fill:none;fill-opacity:1;stroke-width:2.16949153"
     d="M 237.53447,437.65723 C 158.89833,331.53085 114.66258,240.90389 113.7091,183.97288 c -0.37388,-22.32392 2.97276,-37.27787 12.94635,-57.84873 26.81968,-55.316518 96.78461,-87.279802 161.15975,-73.625394 31.9874,6.784746 65.30398,27.396087 83.81182,51.850294 36.35439,48.03461 35.70701,99.26394 -2.28261,180.63243 -21.44785,45.93833 -67.63472,118.48322 -111.00163,174.3483 -1.97273,2.54125 -5.88912,-1.5378 -20.80831,-21.67255 z m 43.03468,-204.91482 c 13.43896,-7.87575 20.95111,-20.02469 22.08632,-35.71887 1.11106,-15.36024 -2.2009,-26.13217 -11.17838,-36.35696 -19.26782,-21.94483 -56.51916,-20.8083 -73.21066,2.23365 -9.13978,12.61711 -11.74632,23.8905 -8.8195,38.14472 6.72286,32.74173 42.29108,48.59363 71.12222,31.69746 z"
     id="path12"
     inkscape:connector-curvature="0" />
  <path
     style="fill:none;fill-opacity:1;stroke-width:2.16949153"
     d="M 237.53447,437.65723 C 158.89833,331.53085 114.66258,240.90389 113.7091,183.97288 c -0.37388,-22.32392 2.97276,-37.27787 12.94635,-57.84873 26.81968,-55.316518 96.78461,-87.279802 161.15975,-73.625394 31.9874,6.784746 65.30398,27.396087 83.81182,51.850294 36.35439,48.03461 35.70701,99.26394 -2.28261,180.63243 -21.44785,45.93833 -67.63472,118.48322 -111.00163,174.3483 -1.97273,2.54125 -5.88912,-1.5378 -20.80831,-21.67255 z m 43.03468,-204.91482 c 13.43896,-7.87575 20.95111,-20.02469 22.08632,-35.71887 1.11106,-15.36024 -2.2009,-26.13217 -11.17838,-36.35696 -19.26782,-21.94483 -56.51916,-20.8083 -73.21066,2.23365 -9.13978,12.61711 -11.74632,23.8905 -8.8195,38.14472 6.72286,32.74173 42.29108,48.59363 71.12222,31.69746 z"
     id="path14"
     inkscape:connector-curvature="0" />
  <path
     style="fill:#ffffff;fill-opacity:1;stroke-width:2.16949153"
     d="M 237.53447,437.65723 C 158.89833,331.53085 114.66258,240.90389 113.7091,183.97288 c -0.37388,-22.32392 2.97276,-37.27787 12.94635,-57.84873 26.81968,-55.316518 96.78461,-87.279802 161.15975,-73.625394 31.9874,6.784746 65.30398,27.396087 83.81182,51.850294 36.35439,48.03461 35.70701,99.26394 -2.28261,180.63243 -21.44785,45.93833 -67.63472,118.48322 -111.00163,174.3483 -1.97273,2.54125 -5.88912,-1.5378 -20.80831,-21.67255 z m 43.03468,-204.91482 c 13.43896,-7.87575 20.95111,-20.02469 22.08632,-35.71887 1.11106,-15.36024 -2.2009,-26.13217 -11.17838,-36.35696 -19.26782,-21.94483 -56.51916,-20.8083 -73.21066,2.23365 -9.13978,12.61711 -11.74632,23.8905 -8.8195,38.14472 6.72286,32.74173 42.29108,48.59363 71.12222,31.69746 z"
     id="path16"
     inkscape:connector-curvature="0" />
  <path
     style="fill:#ffffff;fill-opacity:1;stroke-width:2.16949153"
     d="M 237.50375,435.28498 C 168.25931,342.64823 123.7034,255.51251 115.94193,197.55272 107.92354,137.67437 146.12816,79.886221 207.44868,59.140021 c 38.3136,-12.96241 77.91169,-10.901574 111.72589,5.814643 38.59354,19.078915 62.8976,47.094836 74.007,85.309776 2.86865,9.86787 3.47529,18.32946 2.71373,37.85268 -0.87192,22.35206 -1.99799,28.17142 -10.14159,52.41036 -11.14041,33.15876 -29.54492,70.26791 -56.70802,114.34091 -18.23046,29.57948 -62.97077,94.53692 -70.33069,102.1115 -2.33821,2.40643 -5.98069,-1.31913 -21.21125,-21.69491 z m 35.4402,-198.24383 c 19.17724,-6.76613 30.00537,-23.20505 30.08637,-45.67619 0.0601,-16.66554 -6.09675,-29.06941 -19.10699,-38.49398 -8.05226,-5.83303 -11.61725,-6.90958 -25.14258,-7.59258 -18.36527,-0.92741 -28.84637,3.18656 -39.74633,15.60093 -8.8066,10.03017 -12.22208,21.14645 -10.78257,35.09387 3.3844,32.7917 33.66548,52.01478 64.6921,41.06795 z"
     id="path18"
     inkscape:connector-curvature="0" />
</svg>
